<svg width="400" height="600" viewBox="0 0 400 600" fill="none" xmlns="http://www.w3.org/2000/svg">
<rect width="400" height="600" fill="white"/>
<g clip-path="url(#clip0_1_2)">
<path d="M318.663 520.365C318.663 549.987 266.256 574 201.6 574C136.944 574 84.5373 549.987 84.5373 520.365C84.5373 519.365 84.5973 518.365 84.7173 517.375C88.097 542.639 139.144 562.693 201.6 562.693C264.056 562.693 315.103 542.639 318.483 517.375C318.603 518.365 318.663 519.365 318.663 520.365Z" fill="#1A2346"/>
<path d="M318.343 516.166C318.343 517.066 318.283 517.955 318.163 518.835C314.783 544.098 263.746 564.153 201.28 564.153C138.814 564.153 87.7771 544.098 84.3973 518.835C84.2773 517.955 84.2173 517.066 84.2173 516.166C84.2173 490.073 135.004 468.849 198.26 468.199C199.26 468.189 200.27 468.179 201.28 468.179C202.29 468.179 203.3 468.189 204.3 468.199C267.566 468.849 318.343 490.073 318.343 516.166Z" fill="#D1EBF5"/>
<g opacity="0.8">
<path d="M202.6 488.353C212.569 488.353 220.639 492.042 220.639 496.581C220.639 501.12 212.559 504.809 202.6 504.809C192.64 504.809 184.561 501.12 184.561 496.581C184.561 492.042 192.64 488.353 202.6 488.353ZM202.6 487.854C192.2 487.854 184.061 491.692 184.061 496.581C184.061 501.47 192.21 505.309 202.6 505.309C212.989 505.309 221.139 501.47 221.139 496.581C221.139 491.692 212.989 487.854 202.6 487.854Z" fill="#080D45"/>
</g>
<path opacity="0.8" d="M202.6 516.166C223.011 516.166 239.558 509.188 239.558 500.58C239.558 491.972 223.011 484.994 202.6 484.994C182.189 484.994 165.642 491.972 165.642 500.58C165.642 509.188 182.189 516.166 202.6 516.166Z" stroke="#080D45" stroke-width="0.25" stroke-miterlimit="10"/>
<path d="M220.649 496.551L184.561 497.251L189.461 342.433H216.089L220.649 496.551Z" fill="#D1EBF5"/>
<path d="M240.358 538.41C243.357 538.41 245.788 537 245.788 535.261C245.788 533.521 243.357 532.111 240.358 532.111C237.359 532.111 234.928 533.521 234.928 535.261C234.928 537 237.359 538.41 240.358 538.41Z" fill="#5976BA"/>
<path d="M245.788 528.962H234.928V535.271H245.788V528.962Z" fill="#5976BA"/>
<path d="M240.358 532.111C243.357 532.111 245.788 530.701 245.788 528.962C245.788 527.223 243.357 525.813 240.358 525.813C237.359 525.813 234.928 527.223 234.928 528.962C234.928 530.701 237.359 532.111 240.358 532.111Z" fill="#5976BA"/>
<path d="M216.219 542.539C219.218 542.539 221.649 541.129 221.649 539.389C221.649 537.65 219.218 536.24 216.219 536.24C213.22 536.24 210.789 537.65 210.789 539.389C210.789 541.129 213.22 542.539 216.219 542.539Z" fill="#5976BA"/>
<path d="M221.649 533.081H210.789V539.389H221.649V533.081Z" fill="#5976BA"/>
<path d="M216.219 536.23C219.218 536.23 221.649 534.82 221.649 533.081C221.649 531.342 219.218 529.932 216.219 529.932C213.22 529.932 210.789 531.342 210.789 533.081C210.789 534.82 213.22 536.23 216.219 536.23Z" fill="#5976BA"/>
<path d="M191.071 542.539C194.07 542.539 196.501 541.129 196.501 539.389C196.501 537.65 194.07 536.24 191.071 536.24C188.072 536.24 185.641 537.65 185.641 539.389C185.641 541.129 188.072 542.539 191.071 542.539Z" fill="#5976BA"/>
<path d="M196.501 533.081H185.641V539.389H196.501V533.081Z" fill="#5976BA"/>
<path d="M191.071 536.23C194.07 536.23 196.501 534.82 196.501 533.081C196.501 531.342 194.07 529.932 191.071 529.932C188.072 529.932 185.641 531.342 185.641 533.081C185.641 534.82 188.072 536.23 191.071 536.23Z" fill="#5976BA"/>
<path d="M165.933 539.52C168.931 539.52 171.362 538.11 171.362 536.37C171.362 534.63 168.931 533.22 165.933 533.22C162.934 533.22 160.503 534.63 160.503 536.37C160.503 538.11 162.934 539.52 165.933 539.52Z" fill="#344A7E"/>
<path d="M171.362 533.07H160.503V536.07H171.362V533.07Z" fill="#344A7E"/>
<path d="M165.933 536.22C168.931 536.22 171.362 534.81 171.362 533.07C171.362 531.33 168.931 529.92 165.933 529.92C162.934 529.92 160.503 531.33 160.503 533.07C160.503 534.81 162.934 536.22 165.933 536.22Z" fill="#344A7E"/>
<path d="M206.27 220.437C209.279 220.547 216.319 220.337 222.899 215.448C225.848 213.259 227.858 210.749 229.168 208.75C245.887 218.107 256.606 229.444 262.626 236.852C270.016 245.96 277.395 255.277 279.945 269.453C280.645 273.362 282.735 285.019 278.325 295.266C267.116 321.319 219.999 324.318 210.529 309.622C204.03 299.525 216.199 283.559 214.539 255.957C213.959 246.44 211.869 237.602 211.719 236.992C210.059 230.124 207.99 224.495 206.28 220.427L206.27 220.437Z" fill="#CBE9F4"/>
<path d="M167.242 201.202C168.072 204.091 170.442 210.729 177.121 215.468C180.121 217.597 183.121 218.727 185.431 219.357C181.701 238.152 174.222 251.848 169.032 259.856C162.652 269.693 156.073 279.59 143.374 286.399C139.874 288.278 129.434 293.867 118.315 292.837C90.0669 290.228 72.658 246.35 83.7073 232.803C91.2968 223.506 110.256 230.144 135.994 220.027C144.873 216.538 152.623 211.819 153.163 211.489C159.183 207.79 163.892 204.081 167.232 201.192L167.242 201.202Z" fill="#CBE9F4"/>
<path d="M173.492 158.144C170.992 159.823 165.412 164.132 162.972 171.95C161.872 175.459 161.722 178.658 161.842 181.057C142.814 183.317 127.475 180.438 118.255 177.978C106.926 174.959 95.4766 171.75 85.0772 161.783C82.2074 159.033 73.6679 150.836 71.2081 139.949C64.9685 112.286 101.316 82.1644 117.615 88.4927C128.804 92.8415 128.345 112.916 145.923 134.26C151.983 141.628 158.873 147.537 159.353 147.946C164.732 152.525 169.722 155.864 173.492 158.144Z" fill="#CBE9F4"/>
<path d="M216.369 150.776C213.999 148.916 208.179 144.947 199.99 145.037C196.31 145.077 193.22 145.927 190.981 146.777C182.951 129.381 180.951 113.906 180.441 104.378C179.811 92.6715 179.321 80.7948 185.601 67.8283C187.331 64.2493 192.49 53.5922 202.09 47.8937C226.478 33.4077 266.366 58.6708 265.376 76.126C264.696 88.1128 245.467 93.8812 230.588 117.185C225.458 125.223 221.959 133.6 221.719 134.18C219.019 140.708 217.389 146.477 216.389 150.776H216.369Z" fill="#CBE9F4"/>
<path d="M236.628 189.275C237.658 186.446 239.638 179.688 237.028 171.92C235.858 168.441 234.088 165.752 232.588 163.882C246.657 150.876 260.756 144.187 269.666 140.758C280.605 136.55 291.754 132.411 306.023 134.37C309.963 134.91 321.692 136.52 330.082 143.888C351.401 162.592 339.691 208.33 322.782 212.789C311.173 215.848 299.744 199.342 272.975 192.394C263.746 189.995 254.697 189.265 254.067 189.215C247.017 188.665 241.027 188.905 236.628 189.275Z" fill="#CBE9F4"/>
<path d="M200 342.433C287.537 342.433 358.5 271.485 358.5 183.967C358.5 96.448 287.537 25.5 200 25.5C112.463 25.5 41.5 96.448 41.5 183.967C41.5 271.485 112.463 342.433 200 342.433Z" stroke="#00A0E9" stroke-miterlimit="10"/>
<path d="M199.23 180.497L204.1 342.423" stroke="#9FA0A0" stroke-miterlimit="10"/>
<path d="M199.741 180.368L184.271 341.623" stroke="#9FA0A0" stroke-miterlimit="10"/>
<path d="M200.26 180.308L164.702 338.354" stroke="#9FA0A0" stroke-miterlimit="10"/>
<path d="M200.79 180.318L145.703 332.656" stroke="#9FA0A0" stroke-miterlimit="10"/>
<path d="M201.32 180.388L127.565 324.618" stroke="#9FA0A0" stroke-miterlimit="10"/>
<path d="M201.83 180.518L110.576 314.381" stroke="#9FA0A0" stroke-miterlimit="10"/>
<path d="M202.32 180.717L94.9966 302.084" stroke="#9FA0A0" stroke-miterlimit="10"/>
<path d="M202.78 180.977L81.0975 287.938" stroke="#9FA0A0" stroke-miterlimit="10"/>
<path d="M203.21 181.287L69.0682 272.162" stroke="#9FA0A0" stroke-miterlimit="10"/>
<path d="M203.59 181.657L59.1189 255.007" stroke="#9FA0A0" stroke-miterlimit="10"/>
<path d="M203.92 182.067L51.3994 236.732" stroke="#9FA0A0" stroke-miterlimit="10"/>
<path d="M204.2 182.517L46.0297 217.637" stroke="#9FA0A0" stroke-miterlimit="10"/>
<path d="M204.42 182.997L43.09 198.023" stroke="#9FA0A0" stroke-miterlimit="10"/>
<path d="M204.58 183.497L42.64 178.188" stroke="#9FA0A0" stroke-miterlimit="10"/>
<path d="M204.68 184.017L44.68 158.464" stroke="#9FA0A0" stroke-miterlimit="10"/>
<path d="M204.7 184.546L49.1695 139.139" stroke="#9FA0A0" stroke-miterlimit="10"/>
<path d="M204.67 185.076L56.0491 120.534" stroke="#9FA0A0" stroke-miterlimit="10"/>
<path d="M204.56 185.596L65.2085 102.939" stroke="#9FA0A0" stroke-miterlimit="10"/>
<path d="M204.4 186.096L76.5078 86.6331" stroke="#9FA0A0" stroke-miterlimit="10"/>
<path d="M204.17 186.576L89.7469 71.8672" stroke="#9FA0A0" stroke-miterlimit="10"/>
<path d="M203.88 187.016L104.746 58.8807" stroke="#9FA0A0" stroke-miterlimit="10"/>
<path d="M203.54 187.416L121.255 47.8737" stroke="#9FA0A0" stroke-miterlimit="10"/>
<path d="M203.15 187.776L139.004 39.0162" stroke="#9FA0A0" stroke-miterlimit="10"/>
<path d="M202.72 188.085L157.733 32.4579" stroke="#9FA0A0" stroke-miterlimit="10"/>
<path d="M202.25 188.335L177.131 28.2991" stroke="#9FA0A0" stroke-miterlimit="10"/>
<path d="M201.76 188.525L196.89 26.6096" stroke="#9FA0A0" stroke-miterlimit="10"/>
<path d="M201.25 188.655L216.72 27.3996" stroke="#9FA0A0" stroke-miterlimit="10"/>
<path d="M200.72 188.715L236.288 30.6685" stroke="#9FA0A0" stroke-miterlimit="10"/>
<path d="M200.19 188.715L255.287 36.3669" stroke="#9FA0A0" stroke-miterlimit="10"/>
<path d="M199.67 188.635L273.425 44.4047" stroke="#9FA0A0" stroke-miterlimit="10"/>
<path d="M199.16 188.505L290.414 54.6419" stroke="#9FA0A0" stroke-miterlimit="10"/>
<path d="M198.67 188.305L305.983 66.9385" stroke="#9FA0A0" stroke-miterlimit="10"/>
<path d="M198.21 188.045L319.892 81.0847" stroke="#9FA0A0" stroke-miterlimit="10"/>
<path d="M197.78 187.736L331.922 96.8604" stroke="#9FA0A0" stroke-miterlimit="10"/>
<path d="M197.4 187.366L341.871 114.026" stroke="#9FA0A0" stroke-miterlimit="10"/>
<path d="M197.07 186.956L349.591 132.291" stroke="#9FA0A0" stroke-miterlimit="10"/>
<path d="M196.79 186.506L354.96 151.385" stroke="#9FA0A0" stroke-miterlimit="10"/>
<path d="M196.57 186.026L357.9 171" stroke="#9FA0A0" stroke-miterlimit="10"/>
<path d="M196.41 185.526L358.35 190.835" stroke="#9FA0A0" stroke-miterlimit="10"/>
<path d="M196.31 185.006L356.31 210.569" stroke="#9FA0A0" stroke-miterlimit="10"/>
<path d="M196.28 184.476L351.82 229.884" stroke="#9FA0A0" stroke-miterlimit="10"/>
<path d="M196.32 183.947L344.941 248.489" stroke="#9FA0A0" stroke-miterlimit="10"/>
<path d="M196.42 183.427L335.781 266.084" stroke="#9FA0A0" stroke-miterlimit="10"/>
<path d="M196.59 182.927L324.482 282.39" stroke="#9FA0A0" stroke-miterlimit="10"/>
<path d="M196.82 182.457L311.233 297.156" stroke="#9FA0A0" stroke-miterlimit="10"/>
<path d="M197.11 182.007L296.244 310.142" stroke="#9FA0A0" stroke-miterlimit="10"/>
<path d="M197.45 181.607L279.735 321.149" stroke="#9FA0A0" stroke-miterlimit="10"/>
<path d="M197.84 181.247L261.986 330.007" stroke="#9FA0A0" stroke-miterlimit="10"/>
<path d="M198.27 180.937L243.257 336.565" stroke="#9FA0A0" stroke-miterlimit="10"/>
<path d="M198.73 180.687L223.859 340.724" stroke="#9FA0A0" stroke-miterlimit="10"/>
<path d="M200 230.074C225.47 230.074 246.117 209.431 246.117 183.967C246.117 158.502 225.47 137.859 200 137.859C174.53 137.859 153.883 158.502 153.883 183.967C153.883 209.431 174.53 230.074 200 230.074Z" fill="#FCFDFD"/>
<path d="M200 212.599C215.816 212.599 228.638 199.78 228.638 183.967C228.638 168.153 215.816 155.334 200 155.334C184.184 155.334 171.362 168.153 171.362 183.967C171.362 199.78 184.184 212.599 200 212.599Z" fill="#3056A6"/>
<path d="M200 206.78C212.602 206.78 222.819 196.566 222.819 183.967C222.819 171.367 212.602 161.153 200 161.153C187.398 161.153 177.181 171.367 177.181 183.967C177.181 196.566 187.398 206.78 200 206.78Z" fill="#B7E1EE"/>
</g>
<defs>
<clipPath id="clip0_1_2">
<rect width="318" height="549" fill="white" transform="translate(41 25)"/>
</clipPath>
</defs>
</svg>
